<svg width="16" height="16" viewBox="0 0 16 16" fill="none" xmlns="http://www.w3.org/2000/svg">
<g clip-path="url(#clip0_3197_3461)">
<path d="M9.26432 1.26432C9.06906 1.06906 8.75248 1.06906 8.55722 1.26432L8.01453 1.80701C7.81939 2.00215 7.81925 2.31849 8.01421 2.5138L12.1802 6.68723C12.3374 6.84478 12.2259 7.11385 12.0032 7.11385H0.500001C0.223858 7.11385 -2.38419e-07 7.3377 -2.38419e-07 7.61385V8.38615C-2.38419e-07 8.6623 0.223857 8.88615 0.5 8.88615H12.0032C12.2259 8.88615 12.3374 9.15522 12.1802 9.31277L8.01421 13.4862C7.81925 13.6815 7.81939 13.9979 8.01453 14.193L8.55722 14.7357C8.75248 14.9309 9.06906 14.9309 9.26432 14.7357L15.6464 8.35355C15.8417 8.15829 15.8417 7.84171 15.6464 7.64645L9.26432 1.26432Z" fill="white"/>
</g>
<defs>
<clipPath id="clip0_3197_3461">
<rect width="16" height="16" fill="white"/>
</clipPath>
</defs>
</svg>
