<svg width="80" height="80" viewBox="0 0 80 80" fill="none" xmlns="http://www.w3.org/2000/svg">
    <g clip-path="url(#clip0_3505_48409)">
        <mask id="mask0_3505_48409" style="mask-type:luminance" maskUnits="userSpaceOnUse" x="0"
            y="22" width="48" height="57">
            <path d="M0 22.2893H47.2743V78.4065H0V22.2893Z" fill="" />
        </mask>
        <g mask="url(#mask0_3505_48409)">
            <path
                d="M32.037 23.676C30.1901 23.1909 28.511 23.9434 27.5907 26.1075C26.9501 26.6298 23.1692 35.2116 10.7319 41.0945C8.92845 41.9526 6.34771 43.3518 4.70598 45.5097C3.67159 46.8677 3.50674 48.0633 3.69656 49.2124C3.78295 49.7354 3.52084 50.265 3.06242 50.5312C1.29525 51.5571 0.149273 53.5432 0.321824 55.6461C0.464854 57.4433 1.50959 59.0415 2.43617 60.5837C3.35653 62.1508 4.68733 62.9717 6.49696 62.9033C6.76827 62.8941 7.40681 62.8543 8.1008 62.7135C8.54318 62.6237 9.00517 62.793 9.28795 63.1448C10.8733 65.1174 13.0853 65.6133 15.7876 65.1545L29.6055 61.6844C37.8204 60.534 41.6697 62.07 42.6025 62.07C43.7965 62.07 44.8599 61.417 45.6124 60.2044C45.6124 60.1982 45.6186 60.192 45.6186 60.1857C47.8822 56.3364 46.7131 47.0519 42.7766 37.5996C39.5305 29.8014 35.5132 24.5963 32.037 23.676ZM36.9327 45.8342C37.0272 45.9764 36.9618 46.1719 36.7997 46.2254C35.4694 46.6649 34.164 47.2362 32.9002 47.9311C32.7706 48.0024 32.6072 47.9481 32.5482 47.8125C31.4529 45.2934 30.6268 42.9511 29.8616 39.9633C29.8267 39.8269 29.9118 39.6888 30.0489 39.6567C31.5281 39.3101 32.9544 38.822 34.3113 38.1965C34.4808 38.1184 34.6764 38.243 34.6804 38.4296C34.7304 40.7694 35.576 43.7927 36.9327 45.8342ZM44.0701 59.2592C42.9508 61.0564 41.3712 59.8997 41.5951 59.9992C38.5203 58.5988 35.1833 53.246 33.5217 49.941C33.4623 49.823 33.5055 49.6815 33.6227 49.6205C35.535 48.6257 40.8115 46.9649 40.8115 46.9649C42.4637 44.5612 40.2716 36.6601 37.5767 35.1676C37.3614 35.0484 37.1068 35.0651 36.88 35.1606C35.6592 35.6746 31.5562 37.3779 29.6329 37.8759C29.4979 37.9108 29.3645 37.8237 29.3356 37.6872C29.1743 36.9236 28.9933 36.0666 28.7971 34.4467C28.3929 31.0824 28.3183 24.559 31.5768 25.4234C33.7409 25.9955 37.5343 29.7143 41.11 38.2961C44.7791 47.1017 46.0228 55.9197 44.0701 59.2592Z"
                fill="" />
            <path fill-rule="evenodd" clip-rule="evenodd"
                d="M20.208 66.7154C20.0951 66.4354 20.2569 66.1219 20.5498 66.0483L28.791 63.9787C29.0128 63.923 29.2441 64.0247 29.3521 64.2263C30.322 66.0366 31.5202 68.3867 32.4148 70.5149C32.8252 71.4912 33.074 72.3556 33.1735 73.1764C33.6834 77.1315 30.4311 78.9536 27.0792 77.2061C24.2328 75.7204 21.824 70.7227 20.208 66.7154Z"
                fill="" />
        </g>
        <mask id="mask1_3505_48409" style="mask-type:luminance" maskUnits="userSpaceOnUse" x="39"
            y="1" width="41" height="36">
            <path d="M39.3203 1.59351H80.0028V36.617H39.3203V1.59351Z" fill="" />
        </mask>
        <g mask="url(#mask1_3505_48409)">
            <path fill-rule="evenodd" clip-rule="evenodd"
                d="M42.7801 11.0145C48.1095 2.5882 61.8341 -0.41541 71.0813 4.16153C77.0636 7.12161 79.8372 11.4809 79.1034 16.7605C78.4877 21.7603 76.8957 25.1682 73.774 28.1531C69.7629 31.9714 63.1587 33.9925 54.863 31.8905C51.7972 34.1977 49.2662 35.6342 46.9093 36.3991C45.9206 36.7225 45.0313 35.7088 45.4604 34.7636C46.2502 33.0099 46.7912 31.0448 47.0835 28.9056C45.4853 28.0288 44.2229 27.0338 43.2403 25.8771C39.9693 22.0278 39.7703 15.778 42.7801 11.0145ZM71.9351 26.4905C74.5963 23.9419 75.9654 21.0021 76.4989 16.6516C77.0975 12.3486 74.8393 8.9109 69.7954 6.40969C61.6102 2.36152 49.5724 5.15908 45.0382 12.3189C42.5666 16.2367 42.6911 21.3458 45.3405 24.4516C46.2354 25.5007 47.4327 26.4016 49.0034 27.2017C49.3234 27.3677 49.5131 27.7115 49.4716 28.0671C49.276 29.8006 48.9203 31.4352 48.4126 32.9498C48.343 33.1576 48.5509 33.3523 48.7494 33.2594C50.4212 32.4773 52.2536 31.3125 54.391 29.6733C54.5985 29.5133 54.8771 29.4599 55.1378 29.5251C62.7007 31.5581 68.5092 29.7504 71.9351 26.4905Z"
                fill="" />
        </g>
        <path
            d="M57.9232 11.3997C58.9043 11.5351 60.3879 13.6261 60.7372 13.6743C61.0865 13.7225 63.1754 12.1243 64.4121 12.2952C66.2516 12.5494 66.7278 12.8997 67.4583 13.8634C68.7545 15.5735 68.1532 17.8666 66.2124 20.0478C64.2716 22.229 61.2323 24.9189 59.7223 24.7105C58.2123 24.5021 55.5743 21.3435 54.1488 18.6977C52.7233 16.0519 53.5402 13.4074 54.7003 12.3369C55.8605 11.2663 56.942 11.2642 57.9232 11.3997Z"
            fill="" />
    </g>
    <defs>
        <clipPath id="clip0_3505_48409">
            <rect width="80" height="80" fill="" />
        </clipPath>
    </defs>
</svg>