<svg width="43" height="33" viewBox="0 0 43 33" fill="none" xmlns="http://www.w3.org/2000/svg" xmlns:xlink="http://www.w3.org/1999/xlink">
<g opacity="0.85">
<path d="M5.29292 6.4635C2.71023 9.91045 0.876953 13.7481 0.876953 20.8881C0.876953 24.2252 1.26523 26.1576 2.3203 27.9654C4.19168 31.1718 6.84452 32.6001 10.6778 32.6001C18.3477 32.6001 19.7195 27.746 19.7195 23.1981C19.7195 18.6501 17.512 15.4818 13.195 15.4818C10.3525 15.4818 9.02514 16.4559 8.21587 15.8C7.01167 14.8239 8.32985 11.744 9.31099 9.69999C11.3195 5.5155 15.0434 2.94769 15.0434 2.94769C15.342 2.57455 14.2128 0.504822 13.5969 0.603514C12.6505 0.755192 7.8756 3.01656 5.29292 6.4635Z" fill="url(#pattern0_2251_6500)"/>
<path d="M5.29292 6.4635C2.71023 9.91045 0.876953 13.7481 0.876953 20.8881C0.876953 24.2252 1.26523 26.1576 2.3203 27.9654C4.19168 31.1718 6.84452 32.6001 10.6778 32.6001C18.3477 32.6001 19.7195 27.746 19.7195 23.1981C19.7195 18.6501 17.512 15.4818 13.195 15.4818C10.3525 15.4818 9.02514 16.4559 8.21587 15.8C7.01167 14.8239 8.32985 11.744 9.31099 9.69999C11.3195 5.5155 15.0434 2.94769 15.0434 2.94769C15.342 2.57455 14.2128 0.504822 13.5969 0.603514C12.6505 0.755192 7.8756 3.01656 5.29292 6.4635Z" fill="white" fill-opacity="0.85"/>
<path d="M27.9755 6.4635C25.3928 9.91045 23.5596 13.7481 23.5596 20.8881C23.5596 24.2252 23.9478 26.1576 25.0029 27.9654C26.8743 31.1718 29.5271 32.6001 33.3604 32.6001C41.0303 32.6001 42.4021 27.746 42.4021 23.1981C42.4021 18.6501 40.1946 15.4818 35.8776 15.4818C33.0351 15.4818 31.7078 16.4559 30.8985 15.8C29.6943 14.8239 31.0125 11.744 31.9936 9.69999C34.0022 5.5155 37.7261 2.94769 37.7261 2.94769C38.0246 2.57455 36.8954 0.504822 36.2796 0.603514C35.3331 0.755192 30.5582 3.01656 27.9755 6.4635Z" fill="url(#pattern1_2251_6500)"/>
<path d="M27.9755 6.4635C25.3928 9.91045 23.5596 13.7481 23.5596 20.8881C23.5596 24.2252 23.9478 26.1576 25.0029 27.9654C26.8743 31.1718 29.5271 32.6001 33.3604 32.6001C41.0303 32.6001 42.4021 27.746 42.4021 23.1981C42.4021 18.6501 40.1946 15.4818 35.8776 15.4818C33.0351 15.4818 31.7078 16.4559 30.8985 15.8C29.6943 14.8239 31.0125 11.744 31.9936 9.69999C34.0022 5.5155 37.7261 2.94769 37.7261 2.94769C38.0246 2.57455 36.8954 0.504822 36.2796 0.603514C35.3331 0.755192 30.5582 3.01656 27.9755 6.4635Z" fill="white" fill-opacity="0.85"/>
</g>
<defs>
<pattern id="pattern0_2251_6500" patternContentUnits="objectBoundingBox" width="1" height="1">
<use xlink:href="#image0_2251_6500" transform="matrix(0.00101815 0 0 0.00059952 -0.715677 0)"/>
</pattern>
<pattern id="pattern1_2251_6500" patternContentUnits="objectBoundingBox" width="1" height="1">
<use xlink:href="#image0_2251_6500" transform="matrix(0.00101815 0 0 0.00059952 -0.715677 0)"/>
</pattern>
</defs>
</svg>
