<svg width="40" height="41" viewBox="0 0 40 41" fill="none" xmlns="http://www.w3.org/2000/svg">
<rect x="1.25" y="1.25" width="37.5" height="37.5447" rx="18.75" stroke="white" stroke-width="2.5"/>
<path d="M21.2055 9.02246H18.7945C18.546 9.02246 18.3445 9.22393 18.3445 9.47246V18.367H9.45C9.20147 18.367 9 18.5684 9 18.817V21.228C9 21.4765 9.20147 21.678 9.45 21.678H18.3445V30.5725C18.3445 30.821 18.546 31.0225 18.7945 31.0225H21.2055C21.454 31.0225 21.6555 30.821 21.6555 30.5725V21.678H30.55C30.7985 21.678 31 21.4765 31 21.228V18.817C31 18.5684 30.7985 18.367 30.55 18.367H21.6555V9.47246C21.6555 9.22393 21.454 9.02246 21.2055 9.02246Z" fill="white"/>
</svg>
