<svg width="25" height="25" viewBox="0 0 25 25" fill="none" xmlns="http://www.w3.org/2000/svg">
<path d="M13.3197 0.0446777H11.2077C10.9591 0.0446777 10.7577 0.24615 10.7577 0.494678V10.5387H0.713672C0.465144 10.5387 0.263672 10.7401 0.263672 10.9887V13.1007C0.263672 13.3492 0.465144 13.5507 0.713672 13.5507H10.7577V23.5947C10.7577 23.8432 10.9591 24.0447 11.2077 24.0447H13.3197C13.5682 24.0447 13.7697 23.8432 13.7697 23.5947V13.5507H23.8137C24.0622 13.5507 24.2637 13.3492 24.2637 13.1007V10.9887C24.2637 10.7401 24.0622 10.5387 23.8137 10.5387H13.7697V0.494678C13.7697 0.24615 13.5682 0.0446777 13.3197 0.0446777Z" fill="white"/>
</svg>
