<svg width="100" height="99" viewBox="0 0 100 99" fill="none" xmlns="http://www.w3.org/2000/svg">
<path d="M93.0555 42.848H56.6982V7.19981C56.6982 7.19981 57.1762 0.255372 50 0.255371C42.8238 0.25537 43.3018 7.19982 43.3018 7.19982V42.848H6.94444C6.94444 42.848 -1.3489e-06 42.204 0 49.3097C1.3489e-06 56.4154 6.94444 55.7715 6.94444 55.7715H43.3018V91.4071C43.3018 91.4071 42.8238 98.3641 50 98.3641C57.1762 98.3641 56.6982 91.4071 56.6982 91.4071V55.7715H93.0555C93.0555 55.7715 100 56.4154 100 49.3097C100 42.204 93.0555 42.848 93.0555 42.848Z" fill="black"/>
</svg>
