<svg width="33" height="33" viewBox="0 0 33 33" fill="none" xmlns="http://www.w3.org/2000/svg">
<g clip-path="url(#clip0_2808_7811)">
<path d="M29.867 5.10143C28.2827 4.57131 26.5355 4.32547 24.8564 4.29616C22.0578 4.24731 19.0338 4.76878 16.9253 6.31116C14.8718 4.69613 11.8591 4.57774 9.06044 4.52889C6.44288 4.4832 3.62046 5.38108 1.54098 6.75943C1.27278 6.9372 1.12197 7.24291 1.12453 7.56467L1.2795 27.07C1.27324 27.4288 1.62577 27.7938 1.98457 27.8001C2.12809 27.8026 2.2011 27.7321 2.34462 27.7346C4.2984 26.8355 6.6 26.2297 8.68102 26.266C11.2338 26.3106 13.9573 26.8359 15.9746 28.1535C16.3232 28.3813 16.771 28.4101 17.1434 28.2236C19.1651 27.2113 22.2629 26.5031 24.4681 26.5416C26.8361 26.5829 28.7602 27.0472 30.7506 28.1586C30.8929 28.2329 30.9647 28.2342 31.1082 28.2367C31.467 28.2429 31.832 27.8904 31.8383 27.5316L32.7123 6.58672C31.8625 5.92586 30.9371 5.47902 29.867 5.10143ZM29.1407 23.2182C29.0809 23.858 28.4407 24.2667 27.8193 24.1032C26.7653 23.8258 25.779 23.6932 24.5182 23.6712C22.6027 23.6378 20.0139 24.1677 18.0417 24.971C17.3522 25.2518 16.5212 24.8127 16.4714 24.0698C16.3357 22.048 16.1342 18.5851 16.1762 16.3832C16.225 13.8247 16.6394 10.7738 16.8061 9.63746C16.8488 9.34668 17.0185 9.0912 17.2782 8.95344C19.2905 7.88556 22.5257 7.12673 24.8063 7.16653C26.2814 7.19228 27.7537 7.37595 29.1323 7.76107C29.5448 7.87631 29.8174 8.2578 29.8164 8.68613C29.8128 10.206 29.7914 13.8243 29.6713 16.3113C29.5646 18.5229 29.2976 21.5427 29.1407 23.2182Z" fill="#fffffff"/>
<path d="M24.3756 12.1424C25.2203 12.1424 26.1846 12.3307 27.0614 12.5285C27.6849 12.6691 28.2744 12.2018 28.2744 11.5626L28.2744 11.4536C28.2744 10.9733 27.9332 10.5592 27.4637 10.4577C26.4721 10.2434 25.3345 9.98932 24.3756 9.98932C22.2069 9.98932 20.4648 10.5486 18.8344 11.2171C18.4643 11.3689 18.2266 11.7341 18.2266 12.1341C18.2266 12.9002 19.0559 13.3903 19.7605 13.0893C21.0557 12.5359 22.557 12.1424 24.3756 12.1424Z" fill="#ffffff"/>
<path d="M19.1883 15.1885C18.8125 15.3326 18.5657 15.6937 18.5586 16.0961C18.5453 16.8621 19.3679 17.3669 20.0778 17.0786C21.4709 16.5128 23.1281 16.0938 24.9699 16.126C25.7816 16.1402 26.5746 16.2074 27.3299 16.3235C27.9617 16.4206 28.5619 15.9562 28.5731 15.3171L28.575 15.2082C28.5833 14.7279 28.2495 14.3068 27.7755 14.2286C26.8836 14.0814 25.9504 13.9897 25.0074 13.9732C22.8378 13.9353 20.877 14.5412 19.1883 15.1885Z" fill="#ffffff"/>
<path d="M24.9544 18.4096C22.7764 18.3716 20.7762 18.633 19.077 19.1594C18.713 19.2721 18.4731 19.6122 18.4665 19.9931C18.4545 20.6783 19.178 21.1495 19.8338 20.9505C21.2707 20.5145 23.0074 20.2986 24.9209 20.332C25.7631 20.3467 26.5853 20.4124 27.3662 20.5249C27.9583 20.6101 28.5128 20.1711 28.5232 19.573C28.5312 19.1138 28.2098 18.7122 27.7558 18.6425C26.8538 18.5041 25.909 18.4263 24.9544 18.4096Z" fill="#ffffff"/>
</g>
<defs>
<clipPath id="clip0_2808_7811">
<rect width="32" height="32" fill="white" transform="translate(0.75 0.357422)"/>
</clipPath>
</defs>
</svg>
