<svg width="33" height="33" viewBox="0 0 33 33" fill="none" xmlns="http://www.w3.org/2000/svg">
<g clip-path="url(#clip0_2808_7823)">
<path d="M15.7058 1.21061C14.8862 1.38387 14.0132 1.73705 13.1402 2.25684C12.3205 2.78328 11.8541 3.0765 11.8008 3.18978C11.8008 3.30973 11.6208 3.42302 11.4476 3.60294C11.2143 3.77621 11.1011 3.94947 11.0411 4.12273C10.9811 4.29599 10.8678 4.52922 10.6879 4.70915C10.5146 4.88241 10.3414 5.28891 10.1081 5.92864C9.87491 6.57504 9.70164 7.1548 9.64167 7.73456C9.58169 8.32098 9.64166 9.13397 9.81492 10.1269C10.0482 11.1731 10.2814 11.9928 10.6346 12.5725C10.9811 13.159 11.3876 13.7387 11.8541 14.1452C12.0873 14.3785 12.3205 14.6117 12.5538 14.7916C12.4405 14.9049 12.3206 14.9649 12.2073 15.0782C11.974 15.2581 11.8541 15.4913 11.7408 15.6646C11.6808 15.8378 11.5076 16.0711 11.2143 16.3643C10.9211 16.6508 10.7479 16.8841 10.7479 17.004C10.6879 17.1173 10.5746 17.3506 10.2814 17.7037C9.98819 18.0503 9.8749 18.2302 9.8749 18.3435C9.8749 18.4634 9.75495 18.6367 9.64167 18.8099C9.4684 18.9832 9.28848 19.2764 9.17519 19.6829C9.05524 20.0894 8.88199 20.3826 8.70873 20.6758C8.53546 20.969 8.41551 21.2023 8.41551 21.4355C8.35553 21.7221 8.24225 22.0753 8.00901 22.595C7.77578 23.1215 7.65583 23.528 7.54254 23.9944C7.48257 24.4609 7.36928 24.8741 7.18935 25.2206C7.01609 25.5671 6.84283 26.1535 6.72288 26.8533C6.6096 27.6129 6.54962 27.9595 6.6096 28.0728C6.66957 28.1927 6.66957 28.8324 6.66957 30.0586C6.6096 31.3381 6.72288 32.0378 7.01609 32.271C7.3093 32.5042 7.83576 32.6242 8.64875 32.5642C9.46841 32.5042 9.98819 32.5642 10.1081 32.6242C10.2814 32.6775 10.6879 32.7375 11.2743 32.7375C11.8541 32.7375 12.3205 32.6775 12.6138 32.6242C12.907 32.5642 13.2002 32.5642 13.4334 32.6242C13.6667 32.6775 13.8999 32.6775 13.9532 32.6242C14.0731 32.5642 14.1864 32.5642 14.3064 32.6242C14.4197 32.6775 15.8791 32.6775 18.5646 32.6775C21.3035 32.6775 22.7029 32.6775 22.8228 32.7375C22.9361 32.7974 23.5225 32.8574 24.5688 32.8574C25.6217 32.8574 26.2614 32.7375 26.4946 32.5042C26.7279 32.271 26.8478 31.8645 26.9011 31.3381C26.9611 30.7583 26.8478 29.7054 26.6679 28.1327C26.4946 26.56 26.3214 25.5671 26.2014 25.2206C26.0282 24.8741 25.9682 24.5209 25.9682 24.2277C25.9682 23.9411 25.675 23.0615 25.0952 21.5488C24.5088 20.0361 24.1623 19.1565 23.989 18.9832C23.8091 18.8099 23.7558 18.6967 23.7558 18.5167C23.7558 18.4034 23.6958 18.2302 23.5759 17.9969C23.4626 17.7637 23.3426 17.5838 23.1094 17.4105C22.8761 17.2373 22.8762 17.1173 22.8762 17.004C22.8762 16.8841 22.7029 16.7108 22.4097 16.4176C22.1231 16.1311 21.9432 15.8978 21.8299 15.6646C21.7699 15.4314 21.6567 15.3114 21.4767 15.1981C21.4234 15.1381 21.3035 15.0782 21.2435 15.0782C21.5367 14.7916 21.7699 14.5584 22.0632 14.2652C22.6429 13.6787 23.1694 12.979 23.6358 12.0528C24.1023 11.1731 24.3955 10.2402 24.4555 9.36721C24.5088 8.49424 24.4555 7.68125 24.3355 6.92156C24.1623 6.16188 23.9291 5.46217 23.5226 4.76246C23.1694 4.12273 22.8228 3.65626 22.5896 3.36971C22.3564 3.0765 22.1764 2.95655 22.0632 2.90324C21.9432 2.90324 21.8899 2.78329 21.8299 2.67C21.7699 2.55005 21.6567 2.43676 21.4767 2.37679C21.2435 2.31681 21.1302 2.20353 21.0103 2.08358C20.9569 1.97029 20.4905 1.73706 19.6708 1.44384C18.8578 1.09066 18.1581 0.917396 17.5117 0.857422C17.3385 0.977373 16.5788 1.03735 15.7058 1.21061ZM14.3064 23.528C14.3664 23.6479 14.4796 23.7079 14.5396 23.8212C14.7129 23.9944 14.8862 24.1144 15.0661 24.2277C15.2393 24.3476 15.6458 24.6942 16.2323 25.2806C16.812 25.8603 17.3385 26.3268 17.745 26.68C18.2114 26.9665 18.7978 27.553 19.6108 28.366C20.4305 29.1856 20.897 29.5921 20.957 29.5921C21.0103 29.5921 21.1902 29.7054 21.3635 29.9386C21.5367 30.1719 21.7699 30.4051 22.1231 30.585C22.4697 30.7583 22.6429 30.9316 22.7629 31.1048C22.8228 31.1648 22.8228 31.2781 22.8762 31.3381C22.5296 31.3381 22.1231 31.3381 21.7699 31.3381C21.0103 31.3381 20.6038 31.2248 20.4305 30.9316C20.2572 30.6383 19.964 30.2918 19.4376 29.7654C18.9111 29.2989 18.5646 28.8924 18.3914 28.5392C18.2114 28.2527 17.9249 27.8462 17.4584 27.3797C16.9919 26.9132 16.6987 26.62 16.6388 26.4468C16.5788 26.2668 16.4655 26.1535 16.3455 26.1535C16.2323 26.0936 16.1723 26.0336 16.1123 25.9203C16.059 25.8004 15.999 25.7471 15.8791 25.6271C15.7658 25.5671 15.6458 25.4538 15.5325 25.1606C15.4126 24.9274 15.2393 24.6942 14.9461 24.4609C14.7129 24.2277 14.4797 23.9944 14.4197 23.8212C14.3664 23.7079 14.3064 23.6479 14.3064 23.528ZM8.94196 25.5138C9.00193 25.5138 9.00193 25.5138 9.05524 25.5671C9.11522 25.6271 9.28848 25.8004 9.52172 26.2135C9.75495 26.56 9.98819 26.8533 10.1681 26.9665C10.3414 27.1465 10.5146 27.2598 10.5146 27.3797C10.5746 27.493 10.7479 27.7262 11.0411 28.0728C11.2143 28.2527 11.3876 28.4259 11.5076 28.5992C11.0411 28.2527 10.5746 27.8462 10.1681 27.493C9.23517 26.7333 8.82201 26.2668 8.82201 25.9803C8.94196 25.8004 8.94196 25.6871 8.94196 25.5138ZM11.3343 25.8004C11.4476 25.9203 11.5675 26.0336 11.6808 26.2135C11.9141 26.4468 12.2672 26.7333 12.6737 27.0265C13.0802 27.3197 13.3135 27.553 13.3135 27.6663C13.3734 27.7862 13.4334 27.8462 13.5467 27.8995C13.6667 27.8995 13.7799 28.0194 13.8399 28.1327C13.9532 28.306 14.1331 28.4859 14.4797 28.6592C14.8328 28.8324 15.0061 29.0657 15.0661 29.1856C15.1194 29.3589 15.2993 29.4722 15.5325 29.6521C15.7658 29.8254 16.1123 30.1719 16.5255 30.6383C16.7587 30.8716 16.932 31.1048 17.1652 31.3381C16.932 31.3381 16.6987 31.3381 16.5255 31.2781C16.059 31.2248 15.7658 31.1048 15.5859 30.8183C15.4126 30.5251 15.2393 30.4051 15.1194 30.3518C15.0061 30.2918 14.9461 30.1719 14.8862 30.0586C14.8328 29.9386 14.5396 29.5921 14.0132 29.0657C13.4867 28.5392 13.0802 28.0727 12.907 27.7262C12.7337 27.3797 12.5538 27.1998 12.3205 27.0265C12.1473 26.8533 11.9141 26.62 11.6808 26.2668C11.5675 26.1536 11.4476 25.9803 11.3343 25.8004ZM9.93487 29.3589C9.98819 29.3589 10.0482 29.3589 10.1081 29.4189C10.2214 29.4722 10.3414 29.5921 10.4547 29.7654C10.5746 29.9986 10.6879 30.1186 10.9211 30.1719C11.1544 30.2318 11.3343 30.4051 11.6208 30.7583C11.8008 30.9316 11.9141 31.1048 12.0873 31.2248C12.034 31.2248 11.914 31.2248 11.8541 31.2248C11.6808 31.2248 11.5675 31.1048 11.4476 30.9316C11.3876 30.7583 11.1011 30.4651 10.6346 29.9986C10.3414 29.8254 10.1081 29.5921 9.93487 29.3589ZM8.41551 30.0586C8.58877 30.2319 8.7687 30.4651 8.94196 30.6383C9.11522 30.8183 9.28848 31.0515 9.46841 31.2248C9.28848 31.2248 9.11522 31.2248 8.94196 31.2248C8.7687 31.2248 8.58877 31.2248 8.41551 31.2248C8.41551 31.0515 8.41551 30.8716 8.41551 30.6383C8.41551 30.4651 8.41551 30.2918 8.41551 30.0586Z" fill="#222222"/>
</g>
<defs>
<clipPath id="clip0_2808_7823">
<rect width="32" height="32" fill="white" transform="translate(0.75 0.857422)"/>
</clipPath>
</defs>
</svg>
