<svg xmlns="http://www.w3.org/2000/svg" width="32" height="32" viewBox="0 0 32 32" fill="none">
  <g clip-path="url(#clip0_2734_37614)">
    <path
      d="M3.49668 3.26736C3.81338 2.9972 5.03197 2.92804 6.0135 2.89935C6.23312 2.89293 6.41594 2.72641 6.44893 2.50919C6.47993 2.30505 6.51885 2.06842 6.55652 1.83939C6.60749 1.52952 6.65618 1.23355 6.67985 1.05075C6.69847 0.71411 6.79341 0.320469 7.49148 0.14146C8.10207 0.0372609 8.59538 -0.00637811 8.99375 0.000746619C10.6133 0.0292455 10.6598 0.882432 10.5258 1.83091C10.5069 1.91812 10.4908 2.02774 10.4725 2.15225C10.443 2.35257 10.4078 2.59149 10.3465 2.83749C12.8101 2.81339 15.9926 2.79779 18.6655 2.8355C19.2802 2.84417 20.2444 2.84511 21.1244 2.84349C21.2468 2.84327 21.3442 2.74238 21.3549 2.62047C21.3646 2.51024 21.3824 2.40261 21.4052 2.30025C21.4288 2.07933 21.4755 1.85865 21.5222 1.63796C21.5636 1.44232 21.605 1.24661 21.6304 1.05075C21.649 0.71411 21.744 0.320469 22.442 0.14146C23.0526 0.0372609 23.5459 -0.00637811 23.9443 0.000746619C25.5638 0.0292455 25.6104 0.882432 25.4763 1.83091C25.4575 1.91809 25.4414 2.02767 25.423 2.15213C25.4024 2.2924 25.3789 2.45174 25.3457 2.61903C25.3185 2.75575 25.4166 2.88878 25.5558 2.89547C26.1553 2.92428 27.0574 2.98012 27.5074 3.09722C27.6213 3.12686 27.7043 3.17771 27.7718 3.28019C27.8393 3.38267 27.8508 3.47475 27.8411 3.58796C27.833 3.6833 27.7894 6.01842 27.7758 6.75357C27.7736 6.87478 27.6772 6.97084 27.556 6.96805C26.3956 6.94131 20.8554 6.81461 18.2837 6.77356C16.9669 6.75254 15.6495 6.73152 14.3348 6.70757C13.5181 6.69635 12.6167 6.70079 11.6635 6.70548C10.8073 6.70969 9.90948 6.71411 8.99375 6.70757C8.15901 6.70161 7.40099 6.69357 6.70068 6.68613C5.50355 6.67342 4.47457 6.66249 3.51973 6.66687C3.38981 6.66747 3.28787 6.55562 3.30012 6.42627C3.39818 5.3901 3.46123 4.43594 3.45045 3.38828C3.44998 3.34277 3.46205 3.29689 3.49668 3.26736Z"
      fill="#1E1E1E" />
    <path
      d="M26.922 17.0842C26.4536 17.0045 25.9721 16.9629 25.4809 16.9629C20.9868 16.9629 17.3054 20.4424 16.9838 24.8545C15.4679 24.9105 13.8797 24.9488 12.2997 24.9488C9.12263 24.9488 4.90356 24.7431 3.82673 24.6324C2.42356 24.4701 2.42512 24.3696 2.44025 23.3952C2.44025 23.3952 2.67936 18.4962 2.81183 15.356C2.83302 14.8538 2.84946 14.4105 2.86503 13.9908C2.88839 13.361 2.90979 12.784 2.94231 12.1403C2.9628 11.7346 2.98327 11.3296 3.00191 10.9262C3.03182 10.1167 3.08917 9.76255 3.15823 9.33609C3.2025 9.06272 3.25157 8.75965 3.30132 8.2879C3.31325 8.17471 3.39727 8.08562 3.50252 8.07813C4.12004 8.0342 4.85966 8.02453 5.5211 8.06093C5.84977 8.06721 6.17262 8.07381 6.49264 8.08036L6.49383 8.08038C8.37609 8.11887 10.1606 8.15535 12.4573 8.11403C16.5927 8.03964 19.8068 8.04757 23.1272 8.05578C24.3656 8.05884 25.6188 8.06193 26.9402 8.0608C27.0625 8.0607 27.1613 8.16684 27.1593 8.29896L26.9402 16.3603C26.9366 16.5921 26.9304 16.8344 26.922 17.0842Z"
      fill="#1E1E1E" />
    <path
      d="M17.0136 26.436C15.9089 26.4708 14.7793 26.4923 13.6537 26.4923C10.7651 26.4923 7.01503 26.3038 5.54859 26.1773L5.54419 26.2776C5.52906 27.3578 5.52749 27.4693 6.93067 27.6492C8.00749 27.7719 12.2266 28 15.4036 28C16.0472 28 16.692 27.993 17.3329 27.9804C17.1807 27.4834 17.0728 26.9671 17.0136 26.436Z"
      fill="#1E1E1E" />
    <path
      d="M29.1109 17.7726C28.843 17.6463 28.5675 17.5335 28.2853 17.4352C28.2891 17.2767 28.2921 17.1216 28.2942 16.9705L28.4828 9.27734C28.5976 9.28699 28.6878 9.40069 28.6859 9.54071L29.1109 17.7726Z"
      fill="#1E1E1E" />
    <path
      d="M32 25.4824C32 29.082 29.082 32 25.4824 32C21.8829 32 18.9648 29.082 18.9648 25.4824C18.9648 21.8829 21.8829 18.9648 25.4824 18.9648C29.082 18.9648 32 21.8829 32 25.4824Z"
      fill="#1E1E1E" />
    <path
      d="M24.9221 22.2576C24.9221 22.0943 25.0545 21.9619 25.2178 21.9619H26.2529C26.4162 21.9619 26.5486 22.0943 26.5486 22.2576V29.2072C26.5486 29.3705 26.4162 29.5029 26.2529 29.5029H25.2178C25.0545 29.5029 24.9221 29.3705 24.9221 29.2072V22.2576Z"
      fill="white" />
    <path
      d="M22.2606 26.3237C22.0972 26.3237 21.9648 26.1913 21.9648 26.028V24.9929C21.9648 24.8296 22.0972 24.6972 22.2606 24.6972H29.2101C29.3735 24.6972 29.5059 24.8296 29.5059 24.9929V26.028C29.5059 26.1913 29.3735 26.3237 29.2101 26.3237H22.2606Z"
      fill="white" />
  </g>
  <defs>
    <clipPath id="clip0_2734_37614">
      <rect width="32" height="32" fill="white" />
    </clipPath>
  </defs>
</svg>