<svg xmlns="http://www.w3.org/2000/svg" width="24" height="24" viewBox="0 0 24 24" fill="none">
    <g clip-path="url(#clip0_2712_37345)">
        <path fill-rule="evenodd" clip-rule="evenodd"
            d="M11.6463 23.8873C7.22519 20.2293 4.11067 17.3196 2.86692 13.5798L2.86518 13.5747C2.86445 13.5725 2.86378 13.5704 2.86282 13.5683C1.6625 9.55027 2.22702 6.14177 4.52034 3.38729C6.90051 0.887388 9.92087 -0.213379 13.6182 0.0340074L13.6404 0.0361588C17.7297 0.500139 20.2671 2.17104 21.2544 5.04958C22.0525 7.38168 21.9748 10.5049 20.3827 13.2592C19.2992 15.1336 18.6932 16.2074 17.997 17.2189C16.9501 18.7399 15.699 20.1204 12.3133 23.8708C12.1338 24.0365 11.8356 24.0437 11.6463 23.8873ZM10.5245 5.75378C11.7466 5.13444 12.8642 5.01636 13.8767 5.40018C13.8857 5.40376 13.8947 5.40735 13.9037 5.41165C15.3179 6.04272 16.1274 6.96853 16.3314 8.18908L16.3306 8.18263C16.5166 9.18015 16.0266 10.4314 14.8607 11.3701L14.8517 11.3773C13.7177 12.2443 12.5575 12.6344 11.3711 12.5469L11.366 12.5465L11.3621 12.5462C10.1323 12.4357 9.21054 11.589 8.59767 10.5728C8.58866 10.5577 8.58129 10.5427 8.57391 10.5269C8.07658 9.38238 8.12328 8.26151 8.71484 7.16431C8.72467 7.14566 8.73614 7.12773 8.74925 7.11124C9.2506 6.45546 9.84243 6.00308 10.5245 5.75378Z"
            fill="white" />
    </g>
    <defs>
        <clipPath id="clip0_2712_37345">
            <rect width="24" height="24" fill="white" />
        </clipPath>
    </defs>
</svg>