<svg width="33" height="33" viewBox="0 0 33 33" fill="none" xmlns="http://www.w3.org/2000/svg">
<path d="M5.14643 28.3221C4.52118 28.9737 3.41797 28.5313 3.41797 27.6282V7.63446C3.41797 6.90112 3.54583 5.48139 4.0685 4.95961C4.67108 4.35805 4.83753 4.03251 6.08463 3.96278C18.3149 3.2789 27.418 3.72985 27.418 3.72985C28.1513 3.72985 28.7793 3.99119 29.302 4.51385C29.8246 5.03652 30.0855 5.66408 30.0846 6.39652L29.8128 21.5978C29.8128 22.3311 29.8237 23.9908 29.302 24.5134C28.7802 25.0361 26.5483 24.8659 25.814 24.865C25.0798 24.8641 15.6852 25.0579 10.0159 25.0738C8.17917 25.079 8.32582 25.2082 8.129 25.2961C8.01467 25.3472 6.44336 26.9705 5.14643 28.3221ZM8.7513 20.051C8.7513 20.6033 9.19836 21.051 9.75064 21.051C10.7318 21.051 12.2645 21.051 13.5534 21.051C14.9353 21.051 17.0652 21.1786 18.3421 21.2644C18.9232 21.3035 19.418 20.8436 19.418 20.2612V19.6004C19.418 19.0778 19.016 18.6437 18.4946 18.6081C17.2409 18.5226 14.9919 18.3843 13.5534 18.3843C12.2645 18.3843 10.7318 18.3843 9.75064 18.3843C9.19836 18.3843 8.7513 18.832 8.7513 19.3843V20.051ZM8.44965 15.2617C8.47915 15.7676 8.92014 16.1363 9.42677 16.1267C10.4704 16.107 12.3201 16.0788 14.3537 16.0788C15.765 16.0788 17.7586 16.2069 19.9572 16.222C21.0764 16.2297 22.557 16.1974 23.5014 16.1724C24.0246 16.1585 24.4455 15.741 24.4672 15.218L24.4954 14.5378C24.5192 13.9631 24.0546 13.4868 23.4795 13.4965L19.9572 13.5554C19.9572 13.5554 15.765 13.4121 14.3537 13.4121C12.2543 13.4121 10.3854 13.4768 9.3853 13.5193C8.93112 13.5385 8.5485 13.8656 8.48893 14.3163C8.46472 14.4994 8.4454 14.6887 8.44072 14.8504C8.43709 14.9757 8.44128 15.1182 8.44965 15.2617ZM8.7513 10.4072C8.7513 10.9595 9.19901 11.4072 9.7513 11.4072H23.7513C24.3036 11.4072 24.7513 10.9595 24.7513 10.4072V9.74056C24.7513 9.18827 24.3036 8.74056 23.7513 8.74056H9.7513C9.19901 8.74056 8.7513 9.18827 8.7513 9.74056V10.4072Z" fill="#222222"/>
</svg>
