<svg xmlns="http://www.w3.org/2000/svg" width="32" height="32" viewBox="0 0 32 32" fill="none">
  <g clip-path="url(#clip0_2712_37360)">
    <path
      d="M4.64099 28.9227L3.60172 28.833L3.55602 29.8751L3.55227 29.9605L3.55131 29.9823L3.55107 29.9878L3.55101 29.9892L3.55099 29.9895L3.55099 29.9896L3.55099 29.9896L4.54519 30.0334L3.55099 29.9896L3.55033 30.0046L3.55012 30.0196C3.54992 30.0339 3.54971 30.0483 3.5495 30.0628C3.54561 30.3338 3.54132 30.6324 3.5718 30.8886C3.60653 31.1805 3.69957 31.5602 4.00359 31.8858C4.29141 32.194 4.65577 32.3307 4.94989 32.4093C5.24744 32.4888 5.60938 32.5421 6.0075 32.5931L6.00748 32.5932L6.02142 32.5948C7.30311 32.7409 12.166 33.0022 15.8186 33.0022C20.1652 33.0022 24.5587 32.7239 27.7214 32.5236L27.7314 32.523C29.1332 32.4342 30.2783 32.3618 31.0823 32.3337C32.221 32.294 32.9136 31.3058 32.9955 30.3596L33.0015 30.2907L32.9979 30.2217L31.9989 10.8713C31.9851 10.3366 31.6145 9.67124 30.851 9.60703L29.7935 9.5181L29.7675 10.579L29.552 19.3717L29.5519 19.3717L29.5518 19.3823C29.5115 22.2821 29.1715 26.519 29.003 28.4638C28.9964 28.5398 28.9735 28.5886 28.957 28.6138C28.125 28.6442 26.9733 28.7172 25.6223 28.8027L25.605 28.8038C22.4349 29.0046 18.0973 29.279 13.8186 29.279C10.545 29.279 6.28769 29.0647 4.64099 28.9227Z"
      fill="#ffffff" stroke="#2D3E40" stroke-width="2" />
    <path
      d="M12.2717 28.5146C18.488 28.5146 24.8141 27.9968 27.5005 27.9123C27.9974 27.8967 28.4011 27.4891 28.4524 26.9552C28.6206 25.2036 28.964 21.3513 29.0048 18.6986L29.2552 9.48511C29.2575 9.3341 29.1446 9.21279 29.0048 9.21291C23.4455 9.21765 18.9413 9.157 12.4519 9.27375C9.38011 9.32901 7.10998 9.2625 4.52433 9.21306C3.76835 9.17145 2.92302 9.1825 2.21725 9.23271C2.09695 9.24127 2.00092 9.3431 1.98728 9.47246C1.93043 10.0116 1.87434 10.358 1.82374 10.6705C1.74481 11.1579 1.67926 11.5627 1.64508 12.4879C1.62377 12.9489 1.60038 13.4118 1.57696 13.8755C1.51502 15.1015 1.48838 16.1156 1.42784 17.5508C1.27642 21.1398 1.00315 26.7391 1.00315 26.7391C0.98585 27.8526 0.984065 27.9676 2.58779 28.153C3.81852 28.2795 8.64062 28.5146 12.2717 28.5146Z"
      fill="#ffffff" />
    <path
      d="M5.08885 3.31374C3.96703 3.34654 2.57428 3.42558 2.2123 3.73435C2.17273 3.76811 2.15894 3.82055 2.15947 3.87256C2.17179 5.06996 2.09973 6.16049 1.98765 7.34476C1.97366 7.49259 2.09017 7.62043 2.23866 7.61975C3.96849 7.61182 5.90986 7.64782 8.49506 7.66627C10.7069 7.68205 12.8276 7.64193 14.5995 7.66627C16.1021 7.69363 17.6066 7.71765 19.1117 7.74167L19.1128 7.74169C22.052 7.7886 28.3841 7.93341 29.7103 7.96397C29.8489 7.96716 29.9591 7.85737 29.9616 7.71884C29.9771 6.87861 30.027 4.20974 30.0363 4.10078C30.0473 3.97138 30.0341 3.86615 29.957 3.74902C29.8799 3.6319 29.785 3.57377 29.6549 3.5399C29.1405 3.40606 28.1095 3.34224 27.4243 3.30932C27.2652 3.30167 27.1531 3.14962 27.1841 2.99336C27.2558 2.63242 27.2876 2.30457 27.3335 2.0926C27.4867 1.00856 27.4335 0.0334255 25.5824 0.000853331C25.1271 -0.00728971 24.5633 0.0425865 23.8655 0.161678C23.0676 0.366273 22.9591 0.816176 22.9378 1.20093C22.8761 1.6773 22.7315 2.15265 22.6804 2.62902C22.6544 2.746 22.6341 2.86903 22.623 2.99501C22.6107 3.13434 22.4994 3.24965 22.3595 3.24991C21.3537 3.25176 20.2517 3.25068 19.5491 3.24077C16.4943 3.19767 12.8568 3.2155 10.0412 3.24305C10.1548 2.78708 10.1899 2.35263 10.2461 2.0926C10.3993 1.00856 10.3461 0.0334255 8.49506 0.000853331C8.03975 -0.00728971 7.47594 0.0425865 6.77808 0.161679C5.98023 0.366273 5.87172 0.816176 5.85044 1.20093C5.80338 1.56428 5.66987 2.31884 5.58651 2.86782C5.54881 3.11609 5.33986 3.3064 5.08885 3.31374Z"
      fill="#ffffff" />
  </g>
  <defs>
    <clipPath id="clip0_2712_37360">
      <rect width="32" height="32" fill="white" />
    </clipPath>
  </defs>
</svg>